<svg width="72" height="32" viewBox="0 0 72 32" fill="none" xmlns="http://www.w3.org/2000/svg">
<path d="M29.926 4.44208L25.0371 26.8524H30.963L35.7037 4.44208H29.926Z" fill="#1B226F"/>
<path d="M21.3334 4.44222L15.2592 19.6281L12.7407 6.65376C12.4444 5.1794 11.2592 4.44222 10.0741 4.44222H0.148112L0 5.032C2.07407 5.4743 4.29633 6.21147 5.77781 6.94865C6.6667 7.39096 6.8148 7.83325 7.11109 8.8653L11.7037 26.7051H17.9259L27.4074 4.29482H21.3334V4.44222Z" fill="#1B226F"/>
<path d="M67.4074 4.44208H62.3703C61.1851 4.44208 60.2963 5.03188 59.8519 6.06393L51.1111 26.8524H57.1851L58.3704 23.4614H65.7778L66.5185 26.8524H71.8518L67.4074 4.44208ZM60.2963 18.8908L63.4074 10.487L65.1852 18.8908H60.2963Z" fill="#1B226F"/>
<path d="M43.4074 10.6346C43.4074 9.89745 44.1481 9.01285 45.9259 8.71797C46.8148 8.57054 49.037 8.57056 51.7037 9.75005L52.7407 5.03207C51.4073 4.58976 49.4815 4 47.2593 4C41.4815 4 37.4814 7.09616 37.4814 11.3718C37.4814 14.6154 40.4444 16.3846 42.5185 17.4167C44.7407 18.4487 45.4815 19.1859 45.4815 20.218C45.4815 21.6923 43.7036 22.4295 41.9259 22.4295C38.9629 22.4295 37.3333 21.6923 35.9999 20.9552L34.9629 25.8205C36.2962 26.4103 38.8148 27 41.4814 27C47.5555 27 51.5555 24.0513 51.5555 19.3334C51.5555 13.7308 43.2592 13.2885 43.4074 10.6346Z" fill="#1B226F"/>
</svg>
