<svg width="42" height="32" viewBox="0 0 42 32" fill="none" xmlns="http://www.w3.org/2000/svg">
<path d="M7.521 31.8235V29.7044C7.53341 29.5262 7.50752 29.3474 7.44505 29.18C7.38258 29.0125 7.28497 28.8602 7.15873 28.7332C7.03248 28.6062 6.88049 28.5075 6.71289 28.4435C6.54529 28.3796 6.36592 28.3519 6.18674 28.3624C5.95219 28.3471 5.71782 28.3947 5.50809 28.5003C5.29836 28.606 5.12096 28.7657 4.99441 28.9628C4.87906 28.7716 4.71401 28.6149 4.51665 28.5092C4.3193 28.4035 4.09696 28.3528 3.87306 28.3624C3.6779 28.3526 3.48354 28.3937 3.30926 28.4817C3.13497 28.5696 2.98681 28.7014 2.87946 28.8639V28.4472H2.14136V31.8235H2.88656V29.9658C2.87071 29.8503 2.88068 29.7328 2.91577 29.6216C2.95085 29.5105 3.01018 29.4084 3.08951 29.3227C3.16884 29.237 3.26622 29.1698 3.37468 29.1259C3.48314 29.082 3.60001 29.0625 3.71693 29.0687C4.20663 29.0687 4.45503 29.3866 4.45503 29.9587V31.8376H5.20023V29.9658C5.18503 29.8504 5.19546 29.7332 5.23078 29.6223C5.2661 29.5114 5.32546 29.4096 5.40466 29.324C5.48386 29.2385 5.58096 29.1713 5.68912 29.1271C5.79728 29.083 5.91385 29.0631 6.0306 29.0687C6.5345 29.0687 6.7758 29.3866 6.7758 29.9587V31.8376L7.521 31.8235ZM18.5464 28.4472H17.3328V27.423H16.5876V28.4472H15.9134V29.1182H16.6018V30.6721C16.6018 31.4562 16.907 31.9223 17.7799 31.9223C18.1061 31.9234 18.4259 31.8328 18.7026 31.661L18.4897 31.0324C18.2917 31.1499 18.0671 31.2155 17.8367 31.2231C17.4819 31.2231 17.347 30.997 17.347 30.658V29.1182H18.5535L18.5464 28.4472ZM24.8416 28.3624C24.6616 28.3571 24.4836 28.4003 24.3262 28.4873C24.1688 28.5743 24.0379 28.702 23.9474 28.8568V28.4472H23.2164V31.8235H23.9545V29.9305C23.9545 29.3725 24.1958 29.0617 24.6642 29.0617C24.8221 29.0595 24.9788 29.0883 25.1255 29.1464L25.3526 28.4401C25.184 28.3801 25.0064 28.349 24.8274 28.3483L24.8416 28.3624ZM15.3243 28.7156C14.9065 28.4683 14.4262 28.3458 13.9404 28.3624C13.0816 28.3624 12.5209 28.7721 12.5209 29.4431C12.5209 29.994 12.9326 30.3331 13.692 30.439L14.0468 30.4885C14.4514 30.545 14.643 30.6509 14.643 30.8416C14.643 31.103 14.3733 31.2513 13.8694 31.2513C13.4641 31.263 13.0666 31.1386 12.741 30.8982L12.3861 31.4703C12.8161 31.7691 13.331 31.9226 13.8552 31.9082C14.8346 31.9082 15.4024 31.4491 15.4024 30.8063C15.4024 30.1636 14.9553 29.9022 14.2172 29.7963L13.8623 29.7468C13.5429 29.7044 13.2874 29.6409 13.2874 29.4148C13.2874 29.1888 13.5287 29.0193 13.9333 29.0193C14.3072 29.0236 14.6737 29.1233 14.9979 29.3089L15.3243 28.7156ZM35.0935 28.3624C34.9135 28.3571 34.7354 28.4003 34.578 28.4873C34.4207 28.5743 34.2898 28.702 34.1992 28.8568V28.4472H33.4682V31.8235H34.2063V29.9305C34.2063 29.3725 34.4476 29.0617 34.916 29.0617C35.0739 29.0595 35.2306 29.0883 35.3773 29.1464L35.6044 28.4401C35.4359 28.3801 35.2583 28.349 35.0793 28.3483L35.0935 28.3624ZM25.5833 30.1282C25.5745 30.3655 25.6156 30.602 25.7039 30.8225C25.7922 31.0431 25.9258 31.2429 26.0962 31.4091C26.2665 31.5753 26.4699 31.7043 26.6932 31.7878C26.9165 31.8713 27.1549 31.9075 27.393 31.8941C27.8362 31.9165 28.2717 31.7729 28.6137 31.4915L28.2589 30.8982C28.0037 31.0918 27.6926 31.1983 27.3717 31.2019C27.0989 31.1799 26.8444 31.0565 26.6588 30.8563C26.4732 30.656 26.3702 30.3936 26.3702 30.1212C26.3702 29.8488 26.4732 29.5863 26.6588 29.3861C26.8444 29.1858 27.0989 29.0625 27.3717 29.0405C27.6926 29.044 28.0037 29.1506 28.2589 29.3442L28.6137 28.7509C28.2717 28.4695 27.8362 28.3258 27.393 28.3483C27.1549 28.3348 26.9165 28.371 26.6932 28.4546C26.4699 28.5381 26.2665 28.6671 26.0962 28.8333C25.9258 28.9995 25.7922 29.1993 25.7039 29.4198C25.6156 29.6404 25.5745 29.8769 25.5833 30.1141V30.1282ZM32.4959 30.1282V28.4472H31.7578V28.8568C31.6324 28.6963 31.4705 28.5678 31.2854 28.4818C31.1003 28.3958 30.8973 28.3549 30.6932 28.3624C30.2226 28.3624 29.7713 28.5484 29.4386 28.8796C29.1059 29.2108 28.9189 29.6599 28.9189 30.1282C28.9189 30.5966 29.1059 31.0457 29.4386 31.3769C29.7713 31.708 30.2226 31.8941 30.6932 31.8941C30.8973 31.9016 31.1003 31.8607 31.2854 31.7747C31.4705 31.6887 31.6324 31.5602 31.7578 31.3996V31.8093H32.4959V30.1282ZM29.7493 30.1282C29.7611 29.9295 29.831 29.7385 29.9504 29.5788C30.0699 29.4191 30.2336 29.2977 30.4215 29.2295C30.6095 29.1612 30.8133 29.1492 31.008 29.1948C31.2028 29.2404 31.3798 29.3417 31.5174 29.4862C31.655 29.6307 31.7472 29.8121 31.7825 30.0081C31.8178 30.204 31.7948 30.406 31.7162 30.5891C31.6377 30.7722 31.507 30.9284 31.3404 31.0385C31.1738 31.1487 30.9784 31.2079 30.7784 31.2089C30.6379 31.2107 30.4985 31.1835 30.3691 31.1291C30.2397 31.0747 30.1229 30.9942 30.0263 30.8927C29.9296 30.7911 29.8551 30.6708 29.8074 30.5393C29.7598 30.4077 29.74 30.2678 29.7493 30.1282V30.1282ZM20.8424 28.3624C20.3718 28.369 19.9231 28.5613 19.595 28.8971C19.2669 29.2329 19.0863 29.6846 19.0929 30.153C19.0995 30.6213 19.2928 31.0678 19.6302 31.3944C19.9676 31.7209 20.4215 31.9006 20.892 31.8941C21.4026 31.9202 21.9047 31.7565 22.3008 31.435L21.946 30.8911C21.6658 31.1147 21.3186 31.239 20.9595 31.2443C20.7155 31.2651 20.4729 31.1905 20.2834 31.0361C20.0939 30.8818 19.9723 30.66 19.9446 30.4178H22.4641C22.4641 30.326 22.4641 30.2342 22.4641 30.1353C22.4641 29.0758 21.804 28.3695 20.853 28.3695L20.8424 28.3624ZM20.8424 29.0193C20.9528 29.017 21.0626 29.0363 21.1656 29.0762C21.2685 29.1161 21.3626 29.1758 21.4423 29.2519C21.522 29.328 21.586 29.419 21.6304 29.5197C21.6748 29.6203 21.6988 29.7287 21.7011 29.8386H19.9268C19.9397 29.6119 20.0412 29.3992 20.2097 29.2461C20.3781 29.093 20.6001 29.0115 20.8282 29.0193H20.8424ZM39.334 30.1353V27.091H38.6243V28.8568C38.4989 28.6963 38.337 28.5678 38.1519 28.4818C37.9668 28.3958 37.7638 28.3549 37.5597 28.3624C37.0891 28.3624 36.6378 28.5484 36.3051 28.8796C35.9724 29.2108 35.7854 29.6599 35.7854 30.1282C35.7854 30.5966 35.9724 31.0457 36.3051 31.3769C36.6378 31.708 37.0891 31.8941 37.5597 31.8941C37.7638 31.9016 37.9668 31.8607 38.1519 31.7747C38.337 31.6887 38.4989 31.5602 38.6243 31.3996V31.8093H39.334V30.1353ZM40.5654 31.3325C40.6115 31.332 40.6573 31.3404 40.7002 31.3573C40.741 31.3738 40.7783 31.3978 40.8102 31.4279C40.8414 31.4584 40.8667 31.4943 40.8847 31.5339C40.9027 31.5751 40.912 31.6196 40.912 31.6645C40.912 31.7095 40.9027 31.754 40.8847 31.7952C40.8667 31.8348 40.8414 31.8707 40.8102 31.9011C40.7783 31.9313 40.741 31.9552 40.7002 31.9718C40.6577 31.9904 40.6118 32.0001 40.5654 32C40.4981 31.9995 40.4323 31.98 40.3758 31.9437C40.3193 31.9075 40.2742 31.856 40.246 31.7952C40.2282 31.7539 40.2191 31.7094 40.2191 31.6645C40.2191 31.6196 40.2282 31.5751 40.246 31.5339C40.2641 31.4943 40.2893 31.4584 40.3205 31.4279C40.3525 31.3978 40.3898 31.3738 40.4305 31.3573C40.4767 31.339 40.5263 31.3305 40.576 31.3325H40.5654ZM40.5654 31.9294C40.6008 31.9296 40.6358 31.9224 40.6683 31.9082C40.6988 31.8946 40.7265 31.8755 40.7499 31.8517C40.7943 31.8035 40.8189 31.7405 40.8189 31.6751C40.8189 31.6097 40.7943 31.5467 40.7499 31.4985C40.7265 31.4747 40.6988 31.4555 40.6683 31.442C40.6358 31.4279 40.6008 31.4207 40.5654 31.4208C40.53 31.421 40.495 31.4282 40.4624 31.442C40.4306 31.455 40.4016 31.4742 40.3773 31.4985C40.3329 31.5467 40.3083 31.6097 40.3083 31.6751C40.3083 31.7405 40.3329 31.8035 40.3773 31.8517C40.4017 31.8759 40.4306 31.8951 40.4624 31.9082C40.4982 31.9236 40.537 31.9308 40.576 31.9294H40.5654ZM40.5866 31.5091C40.6198 31.5075 40.6524 31.5175 40.6789 31.5374C40.6898 31.5463 40.6983 31.5577 40.7039 31.5706C40.7094 31.5835 40.7118 31.5976 40.7108 31.6116C40.7114 31.6233 40.7094 31.635 40.7051 31.6459C40.7009 31.6569 40.6943 31.6668 40.686 31.6751C40.6654 31.6937 40.6392 31.7049 40.6115 31.7069L40.7144 31.8235H40.6328L40.537 31.7069H40.505V31.8235H40.4376V31.5127L40.5866 31.5091ZM40.5086 31.5692V31.6539H40.5866C40.6005 31.6581 40.6153 31.6581 40.6292 31.6539C40.6317 31.649 40.633 31.6436 40.633 31.638C40.633 31.6325 40.6317 31.6271 40.6292 31.6221C40.6317 31.6172 40.633 31.6118 40.633 31.6063C40.633 31.6007 40.6317 31.5953 40.6292 31.5904C40.6153 31.5862 40.6005 31.5862 40.5866 31.5904L40.5086 31.5692ZM36.6051 30.1353C36.6169 29.9366 36.6868 29.7456 36.8063 29.5859C36.9257 29.4262 37.0895 29.3048 37.2774 29.2365C37.4653 29.1683 37.6692 29.1562 37.8639 29.2019C38.0586 29.2475 38.2357 29.3488 38.3733 29.4933C38.5109 29.6378 38.603 29.8192 38.6383 30.0151C38.6737 30.2111 38.6506 30.413 38.5721 30.5961C38.4935 30.7792 38.3629 30.9355 38.1963 31.0456C38.0296 31.1557 37.8343 31.215 37.6342 31.216C37.4937 31.2178 37.3544 31.1906 37.2249 31.1362C37.0955 31.0817 36.9788 31.0012 36.8821 30.8997C36.7855 30.7982 36.711 30.6779 36.6633 30.5463C36.6156 30.4148 36.5958 30.2748 36.6051 30.1353V30.1353ZM11.6835 30.1353V28.4472H10.9454V28.8568C10.82 28.6963 10.6581 28.5678 10.473 28.4818C10.2879 28.3958 10.0849 28.3549 9.88081 28.3624C9.41023 28.3624 8.95894 28.5484 8.62619 28.8796C8.29345 29.2108 8.10652 29.6599 8.10652 30.1282C8.10652 30.5966 8.29345 31.0457 8.62619 31.3769C8.95894 31.708 9.41023 31.8941 9.88081 31.8941C10.0849 31.9016 10.2879 31.8607 10.473 31.7747C10.6581 31.6887 10.82 31.5602 10.9454 31.3996V31.8093H11.6835V30.1353ZM8.93688 30.1353C8.94865 29.9366 9.01857 29.7456 9.13801 29.5859C9.25746 29.4262 9.42122 29.3048 9.60914 29.2365C9.79706 29.1683 10.0009 29.1562 10.1956 29.2019C10.3904 29.2475 10.5674 29.3488 10.705 29.4933C10.8426 29.6378 10.9347 29.8192 10.9701 30.0151C11.0054 30.2111 10.9824 30.413 10.9038 30.5961C10.8253 30.7792 10.6946 30.9355 10.528 31.0456C10.3614 31.1557 10.166 31.215 9.96597 31.216C9.82488 31.2188 9.68474 31.1923 9.55446 31.1383C9.42419 31.0843 9.3066 31.004 9.20918 30.9024C9.11175 30.8007 9.03661 30.6801 8.98851 30.548C8.94041 30.416 8.92042 30.2754 8.92979 30.1353H8.93688Z" fill="#231F20"/>
<path d="M26.2574 2.71907H15.0793V22.7119H26.2574V2.71907Z" fill="#FF5F00"/>
<path d="M15.7893 12.7189C15.7872 10.7932 16.2255 8.89223 17.0708 7.16C17.9162 5.42778 19.1465 3.9097 20.6686 2.72072C18.784 1.24667 16.5207 0.330049 14.1374 0.0756125C11.7541 -0.178824 9.347 0.239192 7.19113 1.28188C5.03527 2.32458 3.21764 3.94988 1.946 5.97203C0.674358 7.99418 0 10.3316 0 12.7171C0 15.1027 0.674358 17.4401 1.946 19.4623C3.21764 21.4844 5.03527 23.1097 7.19113 24.1524C9.347 25.1951 11.7541 25.6131 14.1374 25.3587C16.5207 25.1042 18.784 24.1876 20.6686 22.7136C19.147 21.525 17.9169 20.0074 17.0716 18.2759C16.2263 16.5443 15.7878 14.644 15.7893 12.7189V12.7189Z" fill="#EB001B"/>
<path d="M41.3392 12.7173C41.3391 15.103 40.6646 17.4406 39.3927 19.4628C38.1209 21.485 36.303 23.1103 34.1468 24.1529C31.9907 25.1954 29.5833 25.6131 27.1999 25.3583C24.8165 25.1035 22.5532 24.1865 20.6687 22.712C22.1897 21.5223 23.4194 20.0044 24.265 18.2727C25.1105 16.541 25.5499 14.6409 25.5499 12.7155C25.5499 10.7902 25.1105 8.89004 24.265 7.15837C23.4194 5.42671 22.1897 3.90878 20.6687 2.71911C22.5532 1.2446 24.8165 0.32753 27.1999 0.0727285C29.5833 -0.182073 31.9907 0.235673 34.1468 1.27822C36.303 2.32076 38.1209 3.94603 39.3927 5.96826C40.6646 7.99048 41.3391 10.328 41.3392 12.7138V12.7173Z" fill="#F79E1B"/>
<path d="M40.1185 20.5931V20.1834H40.2853V20.0987H39.863V20.1834H40.044V20.5931H40.1185ZM40.9383 20.5931V20.0987H40.8105L40.6615 20.4518L40.5124 20.0987H40.3989V20.5931H40.4911V20.2223L40.6295 20.5437H40.7253L40.8637 20.2223V20.5966L40.9383 20.5931Z" fill="#F79E1B"/>
</svg>
